<?xml version="1.0" encoding="UTF-8" standalone="no"?>
<svg
   width="18"
   height="18"
   version="1.1"
   id="svg1"
   sodipodi:docname="quit_over.svg"
   inkscape:version="1.3.2 (091e20ef0f, 2023-11-25, custom)"
   xmlns:inkscape="http://www.inkscape.org/namespaces/inkscape"
   xmlns:sodipodi="http://sodipodi.sourceforge.net/DTD/sodipodi-0.dtd"
   xmlns:xlink="http://www.w3.org/1999/xlink"
   xmlns="http://www.w3.org/2000/svg"
   xmlns:svg="http://www.w3.org/2000/svg">
  <defs
     id="defs1">
    <linearGradient
       gradientTransform="matrix(0.79520883,0,0,-0.7952174,18.528318,868.92583)"
       inkscape:collect="always"
       xlink:href="#linearGradient847"
       id="linearGradient849-0"
       x1="5.6857157"
       y1="515.151"
       x2="865.45459"
       y2="540.10333"
       gradientUnits="userSpaceOnUse" />
    <linearGradient
       inkscape:collect="always"
       id="linearGradient847">
      <stop
         style="stop-color:#ff416c;stop-opacity:1"
         offset="0"
         id="stop843" />
      <stop
         style="stop-color:#ff4b2b;stop-opacity:1"
         offset="1"
         id="stop845" />
    </linearGradient>
  </defs>
  <sodipodi:namedview
     id="namedview1"
     pagecolor="#ffffff"
     bordercolor="#000000"
     borderopacity="0.25"
     inkscape:showpageshadow="2"
     inkscape:pageopacity="0.0"
     inkscape:pagecheckerboard="0"
     inkscape:deskcolor="#d1d1d1"
     inkscape:zoom="50.416667"
     inkscape:cx="7.4975206"
     inkscape:cy="7.4975206"
     inkscape:window-width="2560"
     inkscape:window-height="1408"
     inkscape:window-x="0"
     inkscape:window-y="0"
     inkscape:window-maximized="1"
     inkscape:current-layer="svg1" />
  <g
     id="hover-center"
     transform="matrix(0.0142564,0,0,-0.0142564,2.4011561,15.547529)">
    <path
       id="path4094-6"
       style="fill:url(#linearGradient849-0);fill-opacity:1;fill-rule:evenodd;stroke:#e70340;stroke-width:32.2326;stroke-miterlimit:4;stroke-dasharray:none;stroke-opacity:1"
       d="m 462.87291,899.08853 c 242.90132,0 439.81547,-196.9119 439.81547,-439.8192 0,-242.9074 -196.91415,-439.819207 -439.81547,-439.819207 -242.90875,0 -439.823309,196.911807 -439.823309,439.819207 0,242.9073 196.914559,439.8192 439.823309,439.8192"
       inkscape:connector-curvature="0"
       inkscape:export-xdpi="96"
       inkscape:export-ydpi="96" />
    <path
       inkscape:connector-curvature="0"
       d="m 246.82133,299.19147 376.41174,376.4128 c 14.56746,14.5664 38.4,14.5664 52.97493,0 l 0.69653,-0.704 c 14.57067,-14.5664 14.57067,-38.4 0.004,-52.97067 L 300.496,245.52107 c -14.57067,-14.57067 -38.40427,-14.57067 -52.97067,0 l -0.704,0.69546 c -14.56746,14.57067 -14.56746,38.40854 0,52.97494"
       style="fill:#9f1d2b;fill-opacity:1;fill-rule:evenodd;stroke:none;stroke-width:1.06667"
       id="path18" />
    <path
       inkscape:connector-curvature="0"
       d="m 300.496,675.60427 376.40853,-376.4128 c 14.5664,-14.5664 14.5664,-38.40427 0,-52.97067 l -0.7008,-0.69973 c -14.57066,-14.57067 -38.4032,-14.57067 -52.97066,0 L 246.82133,621.9296 c -14.57173,14.57067 -14.57173,38.40427 0,52.97493 l 0.69974,0.69974 c 14.57066,14.57066 38.40426,14.57066 52.97493,0"
       style="fill:#9f1d2b;fill-opacity:1;fill-rule:evenodd;stroke:none;stroke-width:1.06667"
       id="path20" />
  </g>
</svg>
