<?xml version="1.0" encoding="UTF-8" standalone="no"?>
<svg
   width="18"
   height="18"
   version="1.1"
   id="svg1"
   sodipodi:docname="quit_down.svg"
   inkscape:version="1.3.2 (091e20ef0f, 2023-11-25, custom)"
   xmlns:inkscape="http://www.inkscape.org/namespaces/inkscape"
   xmlns:sodipodi="http://sodipodi.sourceforge.net/DTD/sodipodi-0.dtd"
   xmlns="http://www.w3.org/2000/svg"
   xmlns:svg="http://www.w3.org/2000/svg">
  <defs
     id="defs1" />
  <sodipodi:namedview
     id="namedview1"
     pagecolor="#ffffff"
     bordercolor="#000000"
     borderopacity="0.25"
     inkscape:showpageshadow="2"
     inkscape:pageopacity="0.0"
     inkscape:pagecheckerboard="0"
     inkscape:deskcolor="#d1d1d1"
     inkscape:zoom="50.416667"
     inkscape:cx="6.7636363"
     inkscape:cy="8.8066115"
     inkscape:window-width="2560"
     inkscape:window-height="1408"
     inkscape:window-x="0"
     inkscape:window-y="0"
     inkscape:window-maximized="1"
     inkscape:current-layer="svg1" />
  <g
     id="pressed-center"
     transform="matrix(0.01425673,0,0,-0.0142568,2.4153506,15.646667)">
    <path
       inkscape:connector-curvature="0"
       d="m 461.86667,10.287499 c 251.79626,0 455.92106,204.125301 455.92106,455.920501 0,251.80053 -204.1248,455.92533 -455.92106,455.92533 -251.80374,0 -455.929166,-204.1248 -455.929166,-455.92533 0,-251.7952 204.125426,-455.920501 455.929166,-455.920501"
       style="fill:#d52735;fill-opacity:1;fill-rule:evenodd;stroke:none;stroke-width:1.06667"
       id="path14-4" />
    <path
       inkscape:connector-curvature="0"
       d="m 461.86667,49.062507 c 230.37866,0 417.14133,186.766823 417.14133,417.145493 0,230.38827 -186.76267,417.14987 -417.14133,417.14987 -230.3872,0 -417.149977,-186.7616 -417.149977,-417.14987 0,-230.37867 186.762777,-417.145493 417.149977,-417.145493"
       style="fill:#d52735;fill-opacity:1;fill-rule:evenodd;stroke:none;stroke-width:1.06667"
       id="path16-2" />
    <path
       inkscape:connector-curvature="0"
       d="m 246.82133,304.8416 376.41174,376.40853 c 14.56746,14.57067 38.4,14.57067 52.97493,0 l 0.69653,-0.69973 c 14.57067,-14.56747 14.57067,-38.40427 0.004,-52.97173 L 300.496,251.1712 c -14.57067,-14.57067 -38.40427,-14.57067 -52.97067,0 l -0.704,0.69547 c -14.56746,14.57066 -14.56746,38.40426 0,52.97493"
       style="fill:#9f1d2b;fill-opacity:1;fill-rule:evenodd;stroke:none;stroke-width:1.06667"
       id="path18-6" />
    <path
       inkscape:connector-curvature="0"
       d="M 300.496,681.25013 676.90453,304.8416 c 14.5664,-14.5664 14.5664,-38.40427 0,-52.97493 l -0.7008,-0.69547 c -14.57066,-14.57067 -38.4032,-14.57067 -52.97066,0 L 246.82133,627.57867 c -14.57173,14.56746 -14.57173,38.40426 0,52.97173 l 0.69974,0.69973 c 14.57066,14.57067 38.40426,14.57067 52.97493,0"
       style="fill:#9f1d2b;fill-opacity:1;fill-rule:evenodd;stroke:none;stroke-width:1.06667"
       id="path20-2" />
  </g>
</svg>
